# xmcd
#
# Track frame offsets: 
#        150
#        16226
#        28736
#        42436
#        56647
#        69891
#        83443
#        97305
#        111502
#        123455
#        135826
#        151392
#        165077
#        172450
#        185992
#        198551
#        212868
#        228002
#        240756
#        252263
#        265091
#        276444
#        291839
#
# Disc length: 4092 seconds
#
# Revision: 1
# Processed by: cddbd v1.5.2PL0 Copyright (c) Steve Scherf et al.
# Submitted via: ExactAudioCopyFreeDBPlugin 1.0
#
DISCID=490ffa17
DTITLE=Various Artist - Marijuana Madness
DYEAR=2011
DGENRE=Jazz
TTITLE0=Harlan Lattimore and His Connie's Inn Orchestra - Reefer Man
TTITLE1=Buster Bailey's Rhythm Busters - Light Up
TTITLE2=Stuff Smith and His Onyx Club Boys - Her Comes The Man With The 
TTITLE2=Jive
TTITLE3=Cab Calloway and His Cotton Club Orchestra - The Man From Harlem
TTITLE4=Georgia White - The Stuff Is Here
TTITLE5=Barney Bigard Sextet - Sweet Marijuana Brown
TTITLE6=Sidney Bechet - Viper Mad
TTITLE7=Cee Pee Johnson - "G" Man Got the "T" Man
TTITLE8=Andy Kirk and His Twelve Clouds Of Joy - All The Jive Is Gone
TTITLE9=Gene Krupa and His Orchestra - Feelin' High And Happy
TTITLE10=Cab Calloway and His Cotton Club Orchestra - Kickin' The Gong A
TTITLE10=rlound
TTITLE11=Bea Foote - Weed
TTITLE12=Buck Washington - Save The Roach For Me
TTITLE13=Lil Green - Knockin' Myself Out
TTITLE14=Trixie Smith - Jack, I'm Mellow
TTITLE15=Stuff Smith and His Onyx Club Boys - You'se A Viper
TTITLE16=Victoria Spivey - Dope Head Blues
TTITLE17=Cootie Williams and His Rug Cutters - Ol' Man River (Smoke A Li
TTITLE17=ttle TEa)
TTITLE18=Lil Johnson - Mellow Stuff
TTITLE19=The Cats and The Fiddle - Killin' Jive
TTITLE20=Helen Humes - They Raided The Joint
TTITLE21=Benny Goodman and His Orchestra - Texas Tea Party
TTITLE22=Julia Lee - Lotus Blossom
EXTD=
EXTT0=
EXTT1=
EXTT2=
EXTT3=
EXTT4=
EXTT5=
EXTT6=
EXTT7=
EXTT8=
EXTT9=
EXTT10=
EXTT11=
EXTT12=
EXTT13=
EXTT14=
EXTT15=
EXTT16=
EXTT17=
EXTT18=
EXTT19=
EXTT20=
EXTT21=
EXTT22=
PLAYORDER=
